<mxfile host="app.diagrams.net" agent="Mozilla/5.0 (Windows NT 10.0; Win64; x64) AppleWebKit/537.36 (KHTML, like Gecko) Chrome/133.0.0.0 Safari/537.36 Edg/133.0.0.0" version="26.0.12">
  <diagram name="Page-1" id="Gw9a_LyiEM9q8k70i7kY">
    <mxGraphModel dx="1913" dy="1136" grid="1" gridSize="10" guides="1" tooltips="1" connect="1" arrows="1" fold="1" page="1" pageScale="1" pageWidth="850" pageHeight="1100" math="0" shadow="0">
      <root>
        <mxCell id="0" />
        <mxCell id="1" parent="0" />
        <mxCell id="Cqlcw4GZI0_jRFDrYdhh-1" value="" style="rounded=0;whiteSpace=wrap;html=1;fillColor=#BC6C25;fontColor=#FEFAE0;strokeColor=#DDA15E;labelBackgroundColor=none;" vertex="1" parent="1">
          <mxGeometry x="10" y="10" width="830" height="160" as="geometry" />
        </mxCell>
        <mxCell id="Cqlcw4GZI0_jRFDrYdhh-2" value="" style="verticalLabelPosition=bottom;shadow=0;dashed=0;align=center;html=1;verticalAlign=top;strokeWidth=1;shape=mxgraph.mockup.graphics.simpleIcon;strokeColor=#BD7000;fontColor=#000000;fillColor=#f0a30a;" vertex="1" parent="1">
          <mxGeometry x="75" y="30" width="130" height="120" as="geometry" />
        </mxCell>
        <mxCell id="Cqlcw4GZI0_jRFDrYdhh-3" value="" style="swimlane;shape=mxgraph.bootstrap.anchor;strokeColor=#BD7000;fillColor=#f0a30a;fontColor=#000000;childLayout=stackLayout;horizontal=0;startSize=0;horizontalStack=1;resizeParent=1;resizeParentMax=0;resizeLast=0;collapsible=0;marginBottom=0;whiteSpace=wrap;html=1;" vertex="1" parent="1">
          <mxGeometry x="260" y="60" width="520" height="60" as="geometry" />
        </mxCell>
        <mxCell id="Cqlcw4GZI0_jRFDrYdhh-4" value="Home" style="text;strokeColor=inherit;align=center;verticalAlign=middle;spacingLeft=10;spacingRight=10;overflow=hidden;points=[[0,0.5],[1,0.5]];portConstraint=eastwest;rotatable=0;whiteSpace=wrap;html=1;fillColor=inherit;fontColor=#FEFAE0;fontSize=17;" vertex="1" parent="Cqlcw4GZI0_jRFDrYdhh-3">
          <mxGeometry width="120" height="60" as="geometry" />
        </mxCell>
        <mxCell id="Cqlcw4GZI0_jRFDrYdhh-5" value="About Us" style="text;strokeColor=inherit;align=center;verticalAlign=middle;spacingLeft=10;spacingRight=10;overflow=hidden;points=[[0,0.5],[1,0.5]];portConstraint=eastwest;rotatable=0;whiteSpace=wrap;html=1;fillColor=inherit;fontColor=#FEFAE0;fontSize=17;" vertex="1" parent="Cqlcw4GZI0_jRFDrYdhh-3">
          <mxGeometry x="120" width="140" height="60" as="geometry" />
        </mxCell>
        <mxCell id="Cqlcw4GZI0_jRFDrYdhh-6" value="Trips" style="text;strokeColor=inherit;align=center;verticalAlign=middle;spacingLeft=10;spacingRight=10;overflow=hidden;points=[[0,0.5],[1,0.5]];portConstraint=eastwest;rotatable=0;whiteSpace=wrap;html=1;fillColor=inherit;fontColor=#FEFAE0;fontSize=17;" vertex="1" parent="Cqlcw4GZI0_jRFDrYdhh-3">
          <mxGeometry x="260" width="110" height="60" as="geometry" />
        </mxCell>
        <mxCell id="Cqlcw4GZI0_jRFDrYdhh-7" value="Contact Us" style="text;strokeColor=inherit;align=center;verticalAlign=middle;spacingLeft=10;spacingRight=10;overflow=hidden;points=[[0,0.5],[1,0.5]];portConstraint=eastwest;rotatable=0;whiteSpace=wrap;html=1;fillColor=inherit;fontColor=#FEFAE0;fontSize=17;" vertex="1" parent="Cqlcw4GZI0_jRFDrYdhh-3">
          <mxGeometry x="370" width="150" height="60" as="geometry" />
        </mxCell>
        <mxCell id="Cqlcw4GZI0_jRFDrYdhh-10" value="" style="rounded=0;whiteSpace=wrap;html=1;fillColor=#BC6C25;fontColor=#FEFAE0;strokeColor=#DDA15E;labelBackgroundColor=none;" vertex="1" parent="1">
          <mxGeometry x="10" y="1030" width="830" height="60" as="geometry" />
        </mxCell>
        <mxCell id="Cqlcw4GZI0_jRFDrYdhh-11" value="" style="verticalLabelPosition=bottom;shadow=0;dashed=0;align=center;html=1;verticalAlign=top;strokeWidth=1;shape=mxgraph.mockup.graphics.simpleIcon;strokeColor=#BD7000;fontColor=#000000;fillColor=#f0a30a;" vertex="1" parent="1">
          <mxGeometry x="760" y="1035" width="60" height="50" as="geometry" />
        </mxCell>
        <mxCell id="Cqlcw4GZI0_jRFDrYdhh-12" value="" style="verticalLabelPosition=bottom;shadow=0;dashed=0;align=center;html=1;verticalAlign=top;strokeWidth=1;shape=mxgraph.mockup.graphics.simpleIcon;strokeColor=#BD7000;fontColor=#000000;fillColor=#f0a30a;" vertex="1" parent="1">
          <mxGeometry x="620" y="1035" width="60" height="50" as="geometry" />
        </mxCell>
        <mxCell id="Cqlcw4GZI0_jRFDrYdhh-13" value="" style="verticalLabelPosition=bottom;shadow=0;dashed=0;align=center;html=1;verticalAlign=top;strokeWidth=1;shape=mxgraph.mockup.graphics.simpleIcon;strokeColor=#BD7000;fontColor=#000000;fillColor=#f0a30a;" vertex="1" parent="1">
          <mxGeometry x="690" y="1035" width="60" height="50" as="geometry" />
        </mxCell>
        <mxCell id="Cqlcw4GZI0_jRFDrYdhh-15" value="Footer Content including social media icons/links" style="text;html=1;align=center;verticalAlign=middle;whiteSpace=wrap;rounded=0;fontColor=#000000;fontSize=16;fontStyle=1" vertex="1" parent="1">
          <mxGeometry x="80" y="1045" width="410" height="30" as="geometry" />
        </mxCell>
        <mxCell id="Cqlcw4GZI0_jRFDrYdhh-16" value="" style="strokeWidth=1;shadow=0;dashed=0;align=center;html=1;shape=mxgraph.mockup.forms.rrect;rSize=0;strokeColor=#999999;fillColor=#ffffff;fontColor=#FEFAE0;verticalAlign=middle;" vertex="1" parent="1">
          <mxGeometry x="30" y="250" width="330" height="430" as="geometry" />
        </mxCell>
        <mxCell id="Cqlcw4GZI0_jRFDrYdhh-17" value="&lt;font style=&quot;font-size: 20px;&quot;&gt;Contact Us&lt;/font&gt;" style="strokeWidth=1;shadow=0;dashed=0;align=center;html=1;shape=mxgraph.mockup.forms.anchor;fontSize=12;fontColor=#666666;align=left;resizeWidth=1;spacingLeft=0;strokeColor=#DDA15E;fillColor=#BC6C25;" vertex="1" parent="Cqlcw4GZI0_jRFDrYdhh-16">
          <mxGeometry width="165" height="20" relative="1" as="geometry">
            <mxPoint x="10" y="10" as="offset" />
          </mxGeometry>
        </mxCell>
        <mxCell id="Cqlcw4GZI0_jRFDrYdhh-18" value="" style="shape=line;strokeColor=#ddeeff;strokeWidth=2;html=1;resizeWidth=1;fontColor=#FEFAE0;fillColor=#BC6C25;" vertex="1" parent="Cqlcw4GZI0_jRFDrYdhh-16">
          <mxGeometry width="297.00000000000006" height="10" relative="1" as="geometry">
            <mxPoint x="10" y="30" as="offset" />
          </mxGeometry>
        </mxCell>
        <mxCell id="Cqlcw4GZI0_jRFDrYdhh-19" value="&lt;font style=&quot;font-size: 20px;&quot;&gt;Name:&lt;/font&gt;" style="strokeWidth=1;shadow=0;dashed=0;align=center;html=1;shape=mxgraph.mockup.forms.anchor;fontSize=12;fontColor=#666666;align=left;resizeWidth=1;spacingLeft=0;strokeColor=#DDA15E;fillColor=#BC6C25;" vertex="1" parent="Cqlcw4GZI0_jRFDrYdhh-16">
          <mxGeometry width="165" height="20" relative="1" as="geometry">
            <mxPoint x="10" y="40" as="offset" />
          </mxGeometry>
        </mxCell>
        <mxCell id="Cqlcw4GZI0_jRFDrYdhh-20" value="&lt;font style=&quot;font-size: 20px;&quot;&gt;johndoe&lt;/font&gt;" style="strokeWidth=1;shadow=0;dashed=0;align=center;html=1;shape=mxgraph.mockup.forms.rrect;rSize=0;strokeColor=#999999;fontColor=#666666;align=left;spacingLeft=5;resizeWidth=1;fillColor=#FFD966;" vertex="1" parent="Cqlcw4GZI0_jRFDrYdhh-16">
          <mxGeometry width="265.83333333333337" height="40" relative="1" as="geometry">
            <mxPoint x="10" y="60" as="offset" />
          </mxGeometry>
        </mxCell>
        <mxCell id="Cqlcw4GZI0_jRFDrYdhh-21" value="&lt;font style=&quot;font-size: 20px;&quot;&gt;Email:&lt;/font&gt;" style="strokeWidth=1;shadow=0;dashed=0;align=center;html=1;shape=mxgraph.mockup.forms.anchor;fontSize=12;fontColor=#666666;align=left;resizeWidth=1;spacingLeft=0;strokeColor=#DDA15E;fillColor=#BC6C25;" vertex="1" parent="Cqlcw4GZI0_jRFDrYdhh-16">
          <mxGeometry width="165" height="20" relative="1" as="geometry">
            <mxPoint x="10" y="110" as="offset" />
          </mxGeometry>
        </mxCell>
        <mxCell id="Cqlcw4GZI0_jRFDrYdhh-22" value="&lt;span&gt;&lt;font style=&quot;font-size: 20px;&quot;&gt;johndoe@email.com&lt;/font&gt;&lt;/span&gt;" style="strokeWidth=1;shadow=0;dashed=0;align=center;html=1;shape=mxgraph.mockup.forms.rrect;rSize=0;strokeColor=#999999;fontColor=#666666;align=left;spacingLeft=5;resizeWidth=1;fillColor=#FFD966;labelBackgroundColor=default;labelBorderColor=default;textShadow=1;" vertex="1" parent="Cqlcw4GZI0_jRFDrYdhh-16">
          <mxGeometry width="265.83333333333337" height="40" relative="1" as="geometry">
            <mxPoint x="10" y="130" as="offset" />
          </mxGeometry>
        </mxCell>
        <mxCell id="Cqlcw4GZI0_jRFDrYdhh-25" value="" style="shape=line;strokeColor=#ddeeff;strokeWidth=2;html=1;resizeWidth=1;fontColor=#FEFAE0;fillColor=#BC6C25;" vertex="1" parent="Cqlcw4GZI0_jRFDrYdhh-16">
          <mxGeometry y="1" width="297.00000000000006" height="10" relative="1" as="geometry">
            <mxPoint x="10" y="-90" as="offset" />
          </mxGeometry>
        </mxCell>
        <mxCell id="Cqlcw4GZI0_jRFDrYdhh-27" value="Send Message" style="strokeWidth=1;shadow=0;dashed=0;align=center;html=1;shape=mxgraph.mockup.forms.rrect;rSize=5;strokeColor=none;fontColor=#ffffff;fillColor=#66bbff;fontSize=16;fontStyle=1;" vertex="1" parent="Cqlcw4GZI0_jRFDrYdhh-16">
          <mxGeometry y="1" width="190" height="30" relative="1" as="geometry">
            <mxPoint x="48" y="-60" as="offset" />
          </mxGeometry>
        </mxCell>
        <mxCell id="Cqlcw4GZI0_jRFDrYdhh-28" value="" style="swimlane;strokeColor=#999999;swimlaneFillColor=#FFFFFF;fillColor=#ffffff;fontColor=#666666;fontStyle=0;childLayout=stackLayout;horizontal=1;startSize=0;horizontalStack=0;resizeParent=1;resizeParentMax=0;resizeLast=0;collapsible=0;marginBottom=0;whiteSpace=wrap;html=1;" vertex="1" parent="Cqlcw4GZI0_jRFDrYdhh-16">
          <mxGeometry x="45.833333333333336" y="200.66251207729468" width="229.16666666666669" height="107.49999999999999" as="geometry" />
        </mxCell>
        <mxCell id="Cqlcw4GZI0_jRFDrYdhh-29" value="&lt;font&gt;General Questions&lt;/font&gt;" style="text;strokeColor=none;align=left;verticalAlign=middle;spacingLeft=27;spacingRight=10;overflow=hidden;points=[[0,0.5],[1,0.5]];portConstraint=eastwest;rotatable=0;whiteSpace=wrap;html=1;fillColor=none;fontColor=light-dark(#FEFAE0,#FFFFFF);fontSize=17;" vertex="1" parent="Cqlcw4GZI0_jRFDrYdhh-28">
          <mxGeometry width="229.16666666666669" height="35.83333333333333" as="geometry" />
        </mxCell>
        <mxCell id="Cqlcw4GZI0_jRFDrYdhh-30" value="" style="shape=ellipse;resizable=0;fillColor=#EEEEEE;strokeColor=#999999;gradientColor=#cccccc;html=1;fontColor=#FEFAE0;" vertex="1" parent="Cqlcw4GZI0_jRFDrYdhh-29">
          <mxGeometry y="0.5" width="15" height="15" relative="1" as="geometry">
            <mxPoint x="8" y="-7.5" as="offset" />
          </mxGeometry>
        </mxCell>
        <mxCell id="Cqlcw4GZI0_jRFDrYdhh-33" value="&lt;font style=&quot;color: light-dark(rgb(237, 237, 237), rgb(255, 255, 255));&quot;&gt;Suggestions&lt;/font&gt;" style="text;strokeColor=none;align=left;verticalAlign=middle;spacingLeft=27;spacingRight=10;overflow=hidden;points=[[0,0.5],[1,0.5]];portConstraint=eastwest;rotatable=0;whiteSpace=wrap;html=1;rSize=5;fillColor=none;fontColor=#FEFAE0;fontSize=17;" vertex="1" parent="Cqlcw4GZI0_jRFDrYdhh-28">
          <mxGeometry y="35.83333333333333" width="229.16666666666669" height="35.83333333333333" as="geometry" />
        </mxCell>
        <mxCell id="Cqlcw4GZI0_jRFDrYdhh-34" value="" style="shape=ellipse;resizable=0;fillColor=#AAAAAA;gradientColor=#666666;strokeColor=#444444;html=1;fontColor=#FEFAE0;" vertex="1" parent="Cqlcw4GZI0_jRFDrYdhh-33">
          <mxGeometry y="0.5" width="15" height="15" relative="1" as="geometry">
            <mxPoint x="8" y="-7.5" as="offset" />
          </mxGeometry>
        </mxCell>
        <mxCell id="Cqlcw4GZI0_jRFDrYdhh-35" value="" style="shape=ellipse;resizable=0;fillColor=#444444;strokeColor=none;html=1;fontColor=#FEFAE0;" vertex="1" parent="Cqlcw4GZI0_jRFDrYdhh-34">
          <mxGeometry x="0.2" y="0.2" width="9" height="9" relative="1" as="geometry" />
        </mxCell>
        <mxCell id="Cqlcw4GZI0_jRFDrYdhh-31" value="&lt;font style=&quot;color: light-dark(rgb(237, 237, 237), rgb(255, 255, 255));&quot;&gt;Reservation Request&lt;/font&gt;" style="text;strokeColor=none;align=left;verticalAlign=middle;spacingLeft=27;spacingRight=10;overflow=hidden;points=[[0,0.5],[1,0.5]];portConstraint=eastwest;rotatable=0;whiteSpace=wrap;html=1;rSize=5;fillColor=none;fontColor=#FEFAE0;fontSize=17;" vertex="1" parent="Cqlcw4GZI0_jRFDrYdhh-28">
          <mxGeometry y="71.66666666666666" width="229.16666666666669" height="35.83333333333333" as="geometry" />
        </mxCell>
        <mxCell id="Cqlcw4GZI0_jRFDrYdhh-32" value="" style="shape=ellipse;resizable=0;fillColor=#EEEEEE;strokeColor=#999999;gradientColor=#cccccc;html=1;fontColor=#FEFAE0;" vertex="1" parent="Cqlcw4GZI0_jRFDrYdhh-31">
          <mxGeometry y="0.5" width="15" height="15" relative="1" as="geometry">
            <mxPoint x="8" y="-7.5" as="offset" />
          </mxGeometry>
        </mxCell>
        <mxCell id="Cqlcw4GZI0_jRFDrYdhh-41" value="" style="verticalLabelPosition=bottom;shadow=0;dashed=0;align=center;html=1;verticalAlign=top;strokeWidth=1;shape=mxgraph.mockup.graphics.simpleIcon;strokeColor=#999999;fontColor=#FEFAE0;fillColor=#BC6C25;" vertex="1" parent="1">
          <mxGeometry x="390" y="420" width="440" height="260" as="geometry" />
        </mxCell>
        <mxCell id="Cqlcw4GZI0_jRFDrYdhh-42" value="&lt;ul&gt;&lt;li&gt;Google Maps Showing office Hours&lt;/li&gt;&lt;/ul&gt;" style="strokeWidth=1;shadow=0;dashed=0;align=left;html=1;shape=mxgraph.mockup.text.textBox;fontColor=#ffffff;align=left;fontSize=17;spacingLeft=4;spacingTop=-3;whiteSpace=wrap;strokeColor=#6D1F00;mainText=;fillColor=#a0522d;" vertex="1" parent="1">
          <mxGeometry x="522.5" y="485" width="175" height="130" as="geometry" />
        </mxCell>
        <mxCell id="Cqlcw4GZI0_jRFDrYdhh-58" value="" style="verticalLabelPosition=bottom;shadow=0;dashed=0;align=center;html=1;verticalAlign=top;strokeWidth=1;shape=mxgraph.mockup.graphics.simpleIcon;strokeColor=#BD7000;fontColor=#000000;fillColor=#f0a30a;" vertex="1" parent="1">
          <mxGeometry x="10" y="740" width="260" height="230" as="geometry" />
        </mxCell>
        <mxCell id="Cqlcw4GZI0_jRFDrYdhh-59" value="" style="verticalLabelPosition=bottom;shadow=0;dashed=0;align=center;html=1;verticalAlign=top;strokeWidth=1;shape=mxgraph.mockup.graphics.simpleIcon;strokeColor=#BD7000;fontColor=#000000;fillColor=#f0a30a;" vertex="1" parent="1">
          <mxGeometry x="580" y="740" width="260" height="230" as="geometry" />
        </mxCell>
        <mxCell id="Cqlcw4GZI0_jRFDrYdhh-60" value="" style="verticalLabelPosition=bottom;shadow=0;dashed=0;align=center;html=1;verticalAlign=top;strokeWidth=1;shape=mxgraph.mockup.graphics.simpleIcon;strokeColor=#BD7000;fontColor=#000000;fillColor=#f0a30a;" vertex="1" parent="1">
          <mxGeometry x="295" y="740" width="260" height="230" as="geometry" />
        </mxCell>
        <mxCell id="Cqlcw4GZI0_jRFDrYdhh-61" value="&lt;font style=&quot;&quot;&gt;&lt;b style=&quot;&quot;&gt;&lt;font style=&quot;font-size: 24px;&quot;&gt;Office Address&lt;br&gt;&lt;/font&gt;&lt;/b&gt;&lt;span style=&quot;font-size: 20px;&quot;&gt;&lt;br&gt;&lt;/span&gt;&lt;/font&gt;&lt;div&gt;&lt;font style=&quot;&quot;&gt;&lt;span style=&quot;font-size: 20px;&quot;&gt;123 somewhere st.&lt;/span&gt;&lt;/font&gt;&lt;/div&gt;&lt;div&gt;&lt;font style=&quot;&quot;&gt;&lt;span style=&quot;font-size: 20px;&quot;&gt;Majuro, MH 12468&lt;/span&gt;&lt;/font&gt;&lt;/div&gt;&lt;div&gt;&lt;font style=&quot;&quot;&gt;&lt;span style=&quot;font-size: 20px;&quot;&gt;&lt;br&gt;&lt;/span&gt;&lt;/font&gt;&lt;/div&gt;&lt;div&gt;&lt;span style=&quot;font-size: 20px;&quot;&gt;Phone: (123) 555-1234&lt;/span&gt;&lt;/div&gt;" style="strokeWidth=1;shadow=0;dashed=0;align=center;html=1;shape=mxgraph.mockup.text.bulletedList;textColor=#666666;mainText=,,,,;textSize=17;bulletStyle=none;strokeColor=none;fillColor=none;align=left;verticalAlign=top;fontSize=17;fontColor=#666666;" vertex="1" parent="1">
          <mxGeometry x="470" y="200" width="350" height="190" as="geometry" />
        </mxCell>
      </root>
    </mxGraphModel>
  </diagram>
</mxfile>
